<?xml version="1.0" encoding="UTF-8"?>
<svg width="200" height="60" viewBox="0 0 200 60" xmlns="http://www.w3.org/2000/svg">
  <!-- DNA Helix -->
  <g transform="translate(10, 10)">
    <!-- Left strand -->
    <path d="M0 5 Q10 0 20 5 Q30 10 40 5" stroke="#3B82F6" stroke-width="2" fill="none"/>
    <path d="M0 25 Q10 20 20 25 Q30 30 40 25" stroke="#3B82F6" stroke-width="2" fill="none"/>
    <!-- Right strand -->
    <path d="M0 15 Q10 20 20 15 Q30 10 40 15" stroke="#10B981" stroke-width="2" fill="none"/>
    <path d="M0 35 Q10 40 20 35 Q30 30 40 35" stroke="#10B981" stroke-width="2" fill="none"/>
    <!-- Connecting lines -->
    <line x1="5" y1="7" x2="5" y2="13" stroke="#6B7280" stroke-width="1"/>
    <line x1="15" y1="3" x2="15" y2="17" stroke="#6B7280" stroke-width="1"/>
    <line x1="25" y1="7" x2="25" y2="13" stroke="#6B7280" stroke-width="1"/>
    <line x1="35" y1="3" x2="35" y2="17" stroke="#6B7280" stroke-width="1"/>
  </g>
  
  <!-- Text -->
  <text x="70" y="25" font-family="Arial, sans-serif" font-size="18" font-weight="bold" fill="#1F2937">DNA Diet</text>
  <text x="70" y="45" font-family="Arial, sans-serif" font-size="18" font-weight="bold" fill="#059669">Club</text>
</svg>
